%TF.GenerationSoftware,KiCad,Pcbnew,(5.1.9)-1*%
%TF.CreationDate,2021-06-30T11:31:53+01:00*%
%TF.ProjectId,VCDO,5643444f-2e6b-4696-9361-645f70636258,rev?*%
%TF.SameCoordinates,Original*%
%TF.FileFunction,Soldermask,Bot*%
%TF.FilePolarity,Negative*%
%FSLAX46Y46*%
G04 Gerber Fmt 4.6, Leading zero omitted, Abs format (unit mm)*
G04 Created by KiCad (PCBNEW (5.1.9)-1) date 2021-06-30 11:31:53*
%MOMM*%
%LPD*%
G01*
G04 APERTURE LIST*
%ADD10C,1.600000*%
%ADD11R,1.600000X1.600000*%
%ADD12C,3.240000*%
%ADD13C,1.800000*%
%ADD14R,1.800000X1.800000*%
%ADD15O,1.600000X2.400000*%
%ADD16R,1.600000X2.400000*%
%ADD17O,1.905000X2.000000*%
%ADD18R,1.905000X2.000000*%
%ADD19O,2.400000X1.600000*%
%ADD20R,2.400000X1.600000*%
%ADD21C,1.440000*%
%ADD22O,1.600000X1.600000*%
%ADD23R,1.100000X1.800000*%
%ADD24O,1.700000X1.700000*%
%ADD25R,1.700000X1.700000*%
G04 APERTURE END LIST*
D10*
%TO.C,C19*%
X39000000Y-50500000D03*
D11*
X36500000Y-50500000D03*
%TD*%
D10*
%TO.C,C17*%
X30000000Y-50500000D03*
D11*
X27500000Y-50500000D03*
%TD*%
D10*
%TO.C,C16*%
X39250000Y-73500000D03*
D11*
X36750000Y-73500000D03*
%TD*%
D10*
%TO.C,C15*%
X30250000Y-73500000D03*
D11*
X27750000Y-73500000D03*
%TD*%
D10*
%TO.C,C18*%
X73400000Y-100400000D03*
X78400000Y-100400000D03*
%TD*%
%TO.C,C14*%
X66400000Y-66800000D03*
X61400000Y-66800000D03*
%TD*%
%TO.C,C13*%
X89750000Y-59250000D03*
X89750000Y-54250000D03*
%TD*%
%TO.C,C12*%
X57600000Y-53200000D03*
X57600000Y-58200000D03*
%TD*%
%TO.C,C11*%
X89750000Y-66500000D03*
X89750000Y-61500000D03*
%TD*%
%TO.C,C10*%
X100918000Y-75438000D03*
X105918000Y-75438000D03*
%TD*%
%TO.C,C9*%
X89750000Y-73750000D03*
X89750000Y-68750000D03*
%TD*%
%TO.C,C8*%
X110236000Y-72216000D03*
X110236000Y-77216000D03*
%TD*%
%TO.C,C7*%
X98500000Y-75500000D03*
X93500000Y-75500000D03*
%TD*%
%TO.C,C6*%
X65600000Y-60800000D03*
X65600000Y-55800000D03*
%TD*%
%TO.C,C5*%
X73600000Y-60800000D03*
X73600000Y-55800000D03*
%TD*%
%TO.C,C4*%
X97750000Y-66750000D03*
X97750000Y-61750000D03*
%TD*%
%TO.C,C3*%
X97750000Y-59500000D03*
X97750000Y-54500000D03*
%TD*%
%TO.C,C2*%
X38000000Y-100000000D03*
X33000000Y-100000000D03*
%TD*%
%TO.C,C1*%
X45800000Y-100000000D03*
X40800000Y-100000000D03*
%TD*%
D12*
%TO.C,RV11*%
X31257000Y-35160000D03*
X31257000Y-44760000D03*
D13*
X23757000Y-42460000D03*
X23757000Y-39960000D03*
D14*
X23757000Y-37460000D03*
%TD*%
D12*
%TO.C,RV12*%
X75007000Y-80160000D03*
X75007000Y-89760000D03*
D13*
X67507000Y-87460000D03*
X67507000Y-84960000D03*
D14*
X67507000Y-82460000D03*
%TD*%
D12*
%TO.C,RV10*%
X100007000Y-80160000D03*
X100007000Y-89760000D03*
D13*
X92507000Y-87460000D03*
X92507000Y-84960000D03*
D14*
X92507000Y-82460000D03*
%TD*%
D12*
%TO.C,RV9*%
X50007000Y-80160000D03*
X50007000Y-89760000D03*
D13*
X42507000Y-87460000D03*
X42507000Y-84960000D03*
D14*
X42507000Y-82460000D03*
%TD*%
D12*
%TO.C,RV8*%
X93757000Y-35160000D03*
X93757000Y-44760000D03*
D13*
X86257000Y-42460000D03*
X86257000Y-39960000D03*
D14*
X86257000Y-37460000D03*
%TD*%
D12*
%TO.C,RV7*%
X25007000Y-80160000D03*
X25007000Y-89760000D03*
D13*
X17507000Y-87460000D03*
X17507000Y-84960000D03*
D14*
X17507000Y-82460000D03*
%TD*%
D12*
%TO.C,RV3*%
X75007000Y-110160000D03*
X75007000Y-119760000D03*
D13*
X67507000Y-117460000D03*
X67507000Y-114960000D03*
D14*
X67507000Y-112460000D03*
%TD*%
D12*
%TO.C,RV2*%
X50007000Y-110160000D03*
X50007000Y-119760000D03*
D13*
X42507000Y-117460000D03*
X42507000Y-114960000D03*
D14*
X42507000Y-112460000D03*
%TD*%
D12*
%TO.C,RV1*%
X25007000Y-110160000D03*
X25007000Y-119760000D03*
D13*
X17507000Y-117460000D03*
X17507000Y-114960000D03*
D14*
X17507000Y-112460000D03*
%TD*%
D15*
%TO.C,U6*%
X81120000Y-96380000D03*
X60800000Y-104000000D03*
X78580000Y-96380000D03*
X63340000Y-104000000D03*
X76040000Y-96380000D03*
X65880000Y-104000000D03*
X73500000Y-96380000D03*
X68420000Y-104000000D03*
X70960000Y-96380000D03*
X70960000Y-104000000D03*
X68420000Y-96380000D03*
X73500000Y-104000000D03*
X65880000Y-96380000D03*
X76040000Y-104000000D03*
X63340000Y-96380000D03*
X78580000Y-104000000D03*
X60800000Y-96380000D03*
D16*
X81120000Y-104000000D03*
%TD*%
D17*
%TO.C,U5*%
X35540000Y-57500000D03*
X33000000Y-57500000D03*
D18*
X30460000Y-57500000D03*
%TD*%
D17*
%TO.C,U4*%
X35540000Y-66000000D03*
X33000000Y-66000000D03*
D18*
X30460000Y-66000000D03*
%TD*%
D19*
%TO.C,U3*%
X69420000Y-62400000D03*
X61800000Y-54780000D03*
X69420000Y-59860000D03*
X61800000Y-57320000D03*
X69420000Y-57320000D03*
X61800000Y-59860000D03*
X69420000Y-54780000D03*
D20*
X61800000Y-62400000D03*
%TD*%
D19*
%TO.C,U2*%
X101620000Y-70000000D03*
X94000000Y-54760000D03*
X101620000Y-67460000D03*
X94000000Y-57300000D03*
X101620000Y-64920000D03*
X94000000Y-59840000D03*
X101620000Y-62380000D03*
X94000000Y-62380000D03*
X101620000Y-59840000D03*
X94000000Y-64920000D03*
X101620000Y-57300000D03*
X94000000Y-67460000D03*
X101620000Y-54760000D03*
D20*
X94000000Y-70000000D03*
%TD*%
D15*
%TO.C,U1*%
X46820000Y-96180000D03*
X31580000Y-103800000D03*
X44280000Y-96180000D03*
X34120000Y-103800000D03*
X41740000Y-96180000D03*
X36660000Y-103800000D03*
X39200000Y-96180000D03*
X39200000Y-103800000D03*
X36660000Y-96180000D03*
X41740000Y-103800000D03*
X34120000Y-96180000D03*
X44280000Y-103800000D03*
X31580000Y-96180000D03*
D16*
X46820000Y-103800000D03*
%TD*%
D21*
%TO.C,RV6*%
X17800000Y-96400000D03*
X17800000Y-98940000D03*
X17800000Y-101480000D03*
%TD*%
%TO.C,RV5*%
X25800000Y-124600000D03*
X28340000Y-124600000D03*
X30880000Y-124600000D03*
%TD*%
%TO.C,RV4*%
X46400000Y-71800000D03*
X48940000Y-71800000D03*
X51480000Y-71800000D03*
%TD*%
D22*
%TO.C,R36*%
X70000000Y-100200000D03*
D10*
X62380000Y-100200000D03*
%TD*%
D22*
%TO.C,R35*%
X83580000Y-76400000D03*
D10*
X91200000Y-76400000D03*
%TD*%
D22*
%TO.C,R34*%
X111250000Y-49630000D03*
D10*
X111250000Y-57250000D03*
%TD*%
D22*
%TO.C,R33*%
X36750000Y-62750000D03*
D10*
X29130000Y-62750000D03*
%TD*%
D22*
%TO.C,R32*%
X79000000Y-73820000D03*
D10*
X79000000Y-66200000D03*
%TD*%
D22*
%TO.C,R31*%
X108000000Y-57250000D03*
D10*
X108000000Y-49630000D03*
%TD*%
D22*
%TO.C,R30*%
X75800000Y-73820000D03*
D10*
X75800000Y-66200000D03*
%TD*%
D22*
%TO.C,R29*%
X69400000Y-73820000D03*
D10*
X69400000Y-66200000D03*
%TD*%
D22*
%TO.C,R28*%
X104800000Y-49630000D03*
D10*
X104800000Y-57250000D03*
%TD*%
D22*
%TO.C,R27*%
X93880000Y-51250000D03*
D10*
X101500000Y-51250000D03*
%TD*%
D22*
%TO.C,R26*%
X58600000Y-68200000D03*
D10*
X58600000Y-60580000D03*
%TD*%
D22*
%TO.C,R25*%
X85500000Y-56130000D03*
D10*
X85500000Y-63750000D03*
%TD*%
D22*
%TO.C,R24*%
X72600000Y-66180000D03*
D10*
X72600000Y-73800000D03*
%TD*%
D22*
%TO.C,R23*%
X82250000Y-63620000D03*
D10*
X82250000Y-56000000D03*
%TD*%
D22*
%TO.C,R22*%
X108168000Y-67114000D03*
D10*
X108168000Y-59494000D03*
%TD*%
D22*
%TO.C,R21*%
X82250000Y-66130000D03*
D10*
X82250000Y-73750000D03*
%TD*%
D22*
%TO.C,R20*%
X85600000Y-118800000D03*
D10*
X85600000Y-111180000D03*
%TD*%
D22*
%TO.C,R19*%
X104768000Y-67094000D03*
D10*
X104768000Y-59474000D03*
%TD*%
D22*
%TO.C,R18*%
X85500000Y-73750000D03*
D10*
X85500000Y-66130000D03*
%TD*%
D22*
%TO.C,R17*%
X82200000Y-111200000D03*
D10*
X82200000Y-118820000D03*
%TD*%
D22*
%TO.C,R16*%
X93600000Y-96580000D03*
D10*
X93600000Y-104200000D03*
%TD*%
D22*
%TO.C,R15*%
X87800000Y-104220000D03*
D10*
X87800000Y-96600000D03*
%TD*%
D22*
%TO.C,R14*%
X57620000Y-96200000D03*
D10*
X50000000Y-96200000D03*
%TD*%
D22*
%TO.C,R13*%
X53400000Y-85580000D03*
D10*
X53400000Y-93200000D03*
%TD*%
D22*
%TO.C,R12*%
X30000000Y-114200000D03*
D10*
X30000000Y-106580000D03*
%TD*%
D22*
%TO.C,R11*%
X46600000Y-114220000D03*
D10*
X46600000Y-106600000D03*
%TD*%
D22*
%TO.C,R10*%
X46400000Y-85780000D03*
D10*
X46400000Y-93400000D03*
%TD*%
D22*
%TO.C,R9*%
X25400000Y-102600000D03*
D10*
X25400000Y-94980000D03*
%TD*%
D22*
%TO.C,R8*%
X22200000Y-94980000D03*
D10*
X22200000Y-102600000D03*
%TD*%
D22*
%TO.C,R7*%
X33200000Y-106580000D03*
D10*
X33200000Y-114200000D03*
%TD*%
D22*
%TO.C,R6*%
X36400000Y-114200000D03*
D10*
X36400000Y-106580000D03*
%TD*%
D22*
%TO.C,R5*%
X52820000Y-76400000D03*
D10*
X45200000Y-76400000D03*
%TD*%
D22*
%TO.C,R4*%
X64200000Y-111180000D03*
D10*
X64200000Y-118800000D03*
%TD*%
D22*
%TO.C,R3*%
X39600000Y-114200000D03*
D10*
X39600000Y-106580000D03*
%TD*%
D22*
%TO.C,R2*%
X17400000Y-106600000D03*
D10*
X25020000Y-106600000D03*
%TD*%
D22*
%TO.C,R1*%
X36600000Y-118580000D03*
D10*
X36600000Y-126200000D03*
%TD*%
D23*
%TO.C,Q1*%
X90600000Y-125800000D03*
G36*
G01*
X88610000Y-125175000D02*
X88610000Y-126425000D01*
G75*
G02*
X88335000Y-126700000I-275000J0D01*
G01*
X87785000Y-126700000D01*
G75*
G02*
X87510000Y-126425000I0J275000D01*
G01*
X87510000Y-125175000D01*
G75*
G02*
X87785000Y-124900000I275000J0D01*
G01*
X88335000Y-124900000D01*
G75*
G02*
X88610000Y-125175000I0J-275000D01*
G01*
G37*
G36*
G01*
X89880000Y-123105000D02*
X89880000Y-124355000D01*
G75*
G02*
X89605000Y-124630000I-275000J0D01*
G01*
X89055000Y-124630000D01*
G75*
G02*
X88780000Y-124355000I0J275000D01*
G01*
X88780000Y-123105000D01*
G75*
G02*
X89055000Y-122830000I275000J0D01*
G01*
X89605000Y-122830000D01*
G75*
G02*
X89880000Y-123105000I0J-275000D01*
G01*
G37*
%TD*%
D24*
%TO.C,J10*%
X66100000Y-127000000D03*
X68640000Y-127000000D03*
X71180000Y-127000000D03*
X73720000Y-127000000D03*
X76260000Y-127000000D03*
D25*
X78800000Y-127000000D03*
%TD*%
D24*
%TO.C,MAIN OUT*%
X110750000Y-124210000D03*
D25*
X110750000Y-126750000D03*
%TD*%
D24*
%TO.C,STRIPE*%
X20000000Y-56840000D03*
X17460000Y-56840000D03*
X20000000Y-59380000D03*
X17460000Y-59380000D03*
X20000000Y-61920000D03*
X17460000Y-61920000D03*
X20000000Y-64460000D03*
X17460000Y-64460000D03*
X20000000Y-67000000D03*
D25*
X17460000Y-67000000D03*
%TD*%
D24*
%TO.C,+12*%
X17000000Y-72170000D03*
X17000000Y-74710000D03*
D25*
X17000000Y-77250000D03*
%TD*%
D24*
%TO.C,SUB OUT*%
X106250000Y-124210000D03*
D25*
X106250000Y-126750000D03*
%TD*%
D24*
%TO.C,GLIDE SW*%
X57750000Y-123960000D03*
D25*
X57750000Y-126500000D03*
%TD*%
D24*
%TO.C,SUB CV*%
X53750000Y-123960000D03*
D25*
X53750000Y-126500000D03*
%TD*%
D24*
%TO.C,WAVE IN*%
X49750000Y-123960000D03*
D25*
X49750000Y-126500000D03*
%TD*%
D24*
%TO.C,FM IN*%
X45750000Y-123960000D03*
D25*
X45750000Y-126500000D03*
%TD*%
D24*
%TO.C,1v/oct*%
X41750000Y-123960000D03*
D25*
X41750000Y-126500000D03*
%TD*%
D22*
%TO.C,D8*%
X96550000Y-96530000D03*
G36*
G01*
X96950000Y-104950000D02*
X96150000Y-104950000D01*
G75*
G02*
X95750000Y-104550000I0J400000D01*
G01*
X95750000Y-103750000D01*
G75*
G02*
X96150000Y-103350000I400000J0D01*
G01*
X96950000Y-103350000D01*
G75*
G02*
X97350000Y-103750000I0J-400000D01*
G01*
X97350000Y-104550000D01*
G75*
G02*
X96950000Y-104950000I-400000J0D01*
G01*
G37*
%TD*%
%TO.C,D7*%
X99200000Y-96580000D03*
G36*
G01*
X99600000Y-105000000D02*
X98800000Y-105000000D01*
G75*
G02*
X98400000Y-104600000I0J400000D01*
G01*
X98400000Y-103800000D01*
G75*
G02*
X98800000Y-103400000I400000J0D01*
G01*
X99600000Y-103400000D01*
G75*
G02*
X100000000Y-103800000I0J-400000D01*
G01*
X100000000Y-104600000D01*
G75*
G02*
X99600000Y-105000000I-400000J0D01*
G01*
G37*
%TD*%
%TO.C,D6*%
X90800000Y-96580000D03*
G36*
G01*
X91200000Y-105000000D02*
X90400000Y-105000000D01*
G75*
G02*
X90000000Y-104600000I0J400000D01*
G01*
X90000000Y-103800000D01*
G75*
G02*
X90400000Y-103400000I400000J0D01*
G01*
X91200000Y-103400000D01*
G75*
G02*
X91600000Y-103800000I0J-400000D01*
G01*
X91600000Y-104600000D01*
G75*
G02*
X91200000Y-105000000I-400000J0D01*
G01*
G37*
%TD*%
%TO.C,D5*%
X84800000Y-96580000D03*
G36*
G01*
X85200000Y-105000000D02*
X84400000Y-105000000D01*
G75*
G02*
X84000000Y-104600000I0J400000D01*
G01*
X84000000Y-103800000D01*
G75*
G02*
X84400000Y-103400000I400000J0D01*
G01*
X85200000Y-103400000D01*
G75*
G02*
X85600000Y-103800000I0J-400000D01*
G01*
X85600000Y-104600000D01*
G75*
G02*
X85200000Y-105000000I-400000J0D01*
G01*
G37*
%TD*%
%TO.C,D4*%
X50000000Y-102000000D03*
G36*
G01*
X58420000Y-101600000D02*
X58420000Y-102400000D01*
G75*
G02*
X58020000Y-102800000I-400000J0D01*
G01*
X57220000Y-102800000D01*
G75*
G02*
X56820000Y-102400000I0J400000D01*
G01*
X56820000Y-101600000D01*
G75*
G02*
X57220000Y-101200000I400000J0D01*
G01*
X58020000Y-101200000D01*
G75*
G02*
X58420000Y-101600000I0J-400000D01*
G01*
G37*
%TD*%
%TO.C,D3*%
X50000000Y-99200000D03*
G36*
G01*
X58420000Y-98800000D02*
X58420000Y-99600000D01*
G75*
G02*
X58020000Y-100000000I-400000J0D01*
G01*
X57220000Y-100000000D01*
G75*
G02*
X56820000Y-99600000I0J400000D01*
G01*
X56820000Y-98800000D01*
G75*
G02*
X57220000Y-98400000I400000J0D01*
G01*
X58020000Y-98400000D01*
G75*
G02*
X58420000Y-98800000I0J-400000D01*
G01*
G37*
%TD*%
%TO.C,D2*%
X59200000Y-85580000D03*
G36*
G01*
X59600000Y-94000000D02*
X58800000Y-94000000D01*
G75*
G02*
X58400000Y-93600000I0J400000D01*
G01*
X58400000Y-92800000D01*
G75*
G02*
X58800000Y-92400000I400000J0D01*
G01*
X59600000Y-92400000D01*
G75*
G02*
X60000000Y-92800000I0J-400000D01*
G01*
X60000000Y-93600000D01*
G75*
G02*
X59600000Y-94000000I-400000J0D01*
G01*
G37*
%TD*%
%TO.C,D1*%
X56400000Y-85600000D03*
G36*
G01*
X56800000Y-94020000D02*
X56000000Y-94020000D01*
G75*
G02*
X55600000Y-93620000I0J400000D01*
G01*
X55600000Y-92820000D01*
G75*
G02*
X56000000Y-92420000I400000J0D01*
G01*
X56800000Y-92420000D01*
G75*
G02*
X57200000Y-92820000I0J-400000D01*
G01*
X57200000Y-93620000D01*
G75*
G02*
X56800000Y-94020000I-400000J0D01*
G01*
G37*
%TD*%
M02*
