%TF.GenerationSoftware,KiCad,Pcbnew,(5.1.9)-1*%
%TF.CreationDate,2021-06-30T11:22:11+01:00*%
%TF.ProjectId,VCDO,5643444f-2e6b-4696-9361-645f70636258,rev?*%
%TF.SameCoordinates,Original*%
%TF.FileFunction,Legend,Top*%
%TF.FilePolarity,Positive*%
%FSLAX46Y46*%
G04 Gerber Fmt 4.6, Leading zero omitted, Abs format (unit mm)*
G04 Created by KiCad (PCBNEW (5.1.9)-1) date 2021-06-30 11:22:11*
%MOMM*%
%LPD*%
G01*
G04 APERTURE LIST*
%ADD10C,0.120000*%
%ADD11C,0.150000*%
%ADD12C,0.100000*%
G04 APERTURE END LIST*
D10*
%TO.C,C18*%
X72780000Y-99475000D02*
X72780000Y-98079000D01*
X72780000Y-102721000D02*
X72780000Y-101325000D01*
X79020000Y-99475000D02*
X79020000Y-98079000D01*
X79020000Y-102721000D02*
X79020000Y-101325000D01*
X79020000Y-98079000D02*
X72780000Y-98079000D01*
X79020000Y-102721000D02*
X72780000Y-102721000D01*
%TO.C,C6*%
X64675000Y-61420000D02*
X63279000Y-61420000D01*
X67921000Y-61420000D02*
X66525000Y-61420000D01*
X64675000Y-55180000D02*
X63279000Y-55180000D01*
X67921000Y-55180000D02*
X66525000Y-55180000D01*
X63279000Y-55180000D02*
X63279000Y-61420000D01*
X67921000Y-55180000D02*
X67921000Y-61420000D01*
%TO.C,C5*%
X72675000Y-61420000D02*
X71279000Y-61420000D01*
X75921000Y-61420000D02*
X74525000Y-61420000D01*
X72675000Y-55180000D02*
X71279000Y-55180000D01*
X75921000Y-55180000D02*
X74525000Y-55180000D01*
X71279000Y-55180000D02*
X71279000Y-61420000D01*
X75921000Y-55180000D02*
X75921000Y-61420000D01*
%TO.C,C4*%
X96825000Y-67370000D02*
X95429000Y-67370000D01*
X100071000Y-67370000D02*
X98675000Y-67370000D01*
X96825000Y-61130000D02*
X95429000Y-61130000D01*
X100071000Y-61130000D02*
X98675000Y-61130000D01*
X95429000Y-61130000D02*
X95429000Y-67370000D01*
X100071000Y-61130000D02*
X100071000Y-67370000D01*
%TO.C,C3*%
X96825000Y-60120000D02*
X95429000Y-60120000D01*
X100071000Y-60120000D02*
X98675000Y-60120000D01*
X96825000Y-53880000D02*
X95429000Y-53880000D01*
X100071000Y-53880000D02*
X98675000Y-53880000D01*
X95429000Y-53880000D02*
X95429000Y-60120000D01*
X100071000Y-53880000D02*
X100071000Y-60120000D01*
%TO.C,C2*%
X38620000Y-100925000D02*
X38620000Y-102321000D01*
X38620000Y-97679000D02*
X38620000Y-99075000D01*
X32380000Y-100925000D02*
X32380000Y-102321000D01*
X32380000Y-97679000D02*
X32380000Y-99075000D01*
X32380000Y-102321000D02*
X38620000Y-102321000D01*
X32380000Y-97679000D02*
X38620000Y-97679000D01*
%TO.C,C1*%
X46420000Y-100925000D02*
X46420000Y-102321000D01*
X46420000Y-97679000D02*
X46420000Y-99075000D01*
X40180000Y-100925000D02*
X40180000Y-102321000D01*
X40180000Y-97679000D02*
X40180000Y-99075000D01*
X40180000Y-102321000D02*
X46420000Y-102321000D01*
X40180000Y-97679000D02*
X46420000Y-97679000D01*
%TO.C,RV11*%
X36227000Y-44830000D02*
X36227000Y-35090000D01*
X24637000Y-44830000D02*
X24637000Y-43340000D01*
X33167000Y-44830000D02*
X36227000Y-44830000D01*
X24637000Y-35080000D02*
X29357000Y-35080000D01*
X33167000Y-35090000D02*
X36227000Y-35090000D01*
X24637000Y-44830000D02*
X29357000Y-44830000D01*
X24637000Y-36270000D02*
X24637000Y-35090000D01*
X24637000Y-39170000D02*
X24637000Y-38640000D01*
X24637000Y-41620000D02*
X24637000Y-40790000D01*
%TO.C,RV12*%
X79977000Y-89830000D02*
X79977000Y-80090000D01*
X68387000Y-89830000D02*
X68387000Y-88340000D01*
X76917000Y-89830000D02*
X79977000Y-89830000D01*
X68387000Y-80080000D02*
X73107000Y-80080000D01*
X76917000Y-80090000D02*
X79977000Y-80090000D01*
X68387000Y-89830000D02*
X73107000Y-89830000D01*
X68387000Y-81270000D02*
X68387000Y-80090000D01*
X68387000Y-84170000D02*
X68387000Y-83640000D01*
X68387000Y-86620000D02*
X68387000Y-85790000D01*
%TO.C,RV10*%
X104977000Y-89830000D02*
X104977000Y-80090000D01*
X93387000Y-89830000D02*
X93387000Y-88340000D01*
X101917000Y-89830000D02*
X104977000Y-89830000D01*
X93387000Y-80080000D02*
X98107000Y-80080000D01*
X101917000Y-80090000D02*
X104977000Y-80090000D01*
X93387000Y-89830000D02*
X98107000Y-89830000D01*
X93387000Y-81270000D02*
X93387000Y-80090000D01*
X93387000Y-84170000D02*
X93387000Y-83640000D01*
X93387000Y-86620000D02*
X93387000Y-85790000D01*
%TO.C,RV9*%
X54977000Y-89830000D02*
X54977000Y-80090000D01*
X43387000Y-89830000D02*
X43387000Y-88340000D01*
X51917000Y-89830000D02*
X54977000Y-89830000D01*
X43387000Y-80080000D02*
X48107000Y-80080000D01*
X51917000Y-80090000D02*
X54977000Y-80090000D01*
X43387000Y-89830000D02*
X48107000Y-89830000D01*
X43387000Y-81270000D02*
X43387000Y-80090000D01*
X43387000Y-84170000D02*
X43387000Y-83640000D01*
X43387000Y-86620000D02*
X43387000Y-85790000D01*
%TO.C,RV8*%
X98727000Y-44830000D02*
X98727000Y-35090000D01*
X87137000Y-44830000D02*
X87137000Y-43340000D01*
X95667000Y-44830000D02*
X98727000Y-44830000D01*
X87137000Y-35080000D02*
X91857000Y-35080000D01*
X95667000Y-35090000D02*
X98727000Y-35090000D01*
X87137000Y-44830000D02*
X91857000Y-44830000D01*
X87137000Y-36270000D02*
X87137000Y-35090000D01*
X87137000Y-39170000D02*
X87137000Y-38640000D01*
X87137000Y-41620000D02*
X87137000Y-40790000D01*
%TO.C,RV7*%
X29977000Y-89830000D02*
X29977000Y-80090000D01*
X18387000Y-89830000D02*
X18387000Y-88340000D01*
X26917000Y-89830000D02*
X29977000Y-89830000D01*
X18387000Y-80080000D02*
X23107000Y-80080000D01*
X26917000Y-80090000D02*
X29977000Y-80090000D01*
X18387000Y-89830000D02*
X23107000Y-89830000D01*
X18387000Y-81270000D02*
X18387000Y-80090000D01*
X18387000Y-84170000D02*
X18387000Y-83640000D01*
X18387000Y-86620000D02*
X18387000Y-85790000D01*
%TO.C,RV3*%
X79977000Y-119830000D02*
X79977000Y-110090000D01*
X68387000Y-119830000D02*
X68387000Y-118340000D01*
X76917000Y-119830000D02*
X79977000Y-119830000D01*
X68387000Y-110080000D02*
X73107000Y-110080000D01*
X76917000Y-110090000D02*
X79977000Y-110090000D01*
X68387000Y-119830000D02*
X73107000Y-119830000D01*
X68387000Y-111270000D02*
X68387000Y-110090000D01*
X68387000Y-114170000D02*
X68387000Y-113640000D01*
X68387000Y-116620000D02*
X68387000Y-115790000D01*
%TO.C,RV2*%
X54977000Y-119830000D02*
X54977000Y-110090000D01*
X43387000Y-119830000D02*
X43387000Y-118340000D01*
X51917000Y-119830000D02*
X54977000Y-119830000D01*
X43387000Y-110080000D02*
X48107000Y-110080000D01*
X51917000Y-110090000D02*
X54977000Y-110090000D01*
X43387000Y-119830000D02*
X48107000Y-119830000D01*
X43387000Y-111270000D02*
X43387000Y-110090000D01*
X43387000Y-114170000D02*
X43387000Y-113640000D01*
X43387000Y-116620000D02*
X43387000Y-115790000D01*
%TO.C,RV1*%
X29977000Y-119830000D02*
X29977000Y-110090000D01*
X18387000Y-119830000D02*
X18387000Y-118340000D01*
X26917000Y-119830000D02*
X29977000Y-119830000D01*
X18387000Y-110080000D02*
X23107000Y-110080000D01*
X26917000Y-110090000D02*
X29977000Y-110090000D01*
X18387000Y-119830000D02*
X23107000Y-119830000D01*
X18387000Y-111270000D02*
X18387000Y-110090000D01*
X18387000Y-114170000D02*
X18387000Y-113640000D01*
X18387000Y-116620000D02*
X18387000Y-115790000D01*
%TO.C,R36*%
X62920000Y-99160000D02*
X62920000Y-98830000D01*
X62920000Y-98830000D02*
X69460000Y-98830000D01*
X69460000Y-98830000D02*
X69460000Y-99160000D01*
X62920000Y-101240000D02*
X62920000Y-101570000D01*
X62920000Y-101570000D02*
X69460000Y-101570000D01*
X69460000Y-101570000D02*
X69460000Y-101240000D01*
%TO.C,JP1*%
X85868000Y-80648000D02*
X85868000Y-77848000D01*
X85868000Y-77848000D02*
X87868000Y-77848000D01*
X87868000Y-77848000D02*
X87868000Y-80648000D01*
X87868000Y-80648000D02*
X85868000Y-80648000D01*
%TO.C,C18*%
D11*
X74886942Y-102166842D02*
X74839323Y-102214461D01*
X74696466Y-102262080D01*
X74601228Y-102262080D01*
X74458371Y-102214461D01*
X74363133Y-102119223D01*
X74315514Y-102023985D01*
X74267895Y-101833509D01*
X74267895Y-101690652D01*
X74315514Y-101500176D01*
X74363133Y-101404938D01*
X74458371Y-101309700D01*
X74601228Y-101262080D01*
X74696466Y-101262080D01*
X74839323Y-101309700D01*
X74886942Y-101357319D01*
X75839323Y-102262080D02*
X75267895Y-102262080D01*
X75553609Y-102262080D02*
X75553609Y-101262080D01*
X75458371Y-101404938D01*
X75363133Y-101500176D01*
X75267895Y-101547795D01*
X76410752Y-101690652D02*
X76315514Y-101643033D01*
X76267895Y-101595414D01*
X76220276Y-101500176D01*
X76220276Y-101452557D01*
X76267895Y-101357319D01*
X76315514Y-101309700D01*
X76410752Y-101262080D01*
X76601228Y-101262080D01*
X76696466Y-101309700D01*
X76744085Y-101357319D01*
X76791704Y-101452557D01*
X76791704Y-101500176D01*
X76744085Y-101595414D01*
X76696466Y-101643033D01*
X76601228Y-101690652D01*
X76410752Y-101690652D01*
X76315514Y-101738271D01*
X76267895Y-101785890D01*
X76220276Y-101881128D01*
X76220276Y-102071604D01*
X76267895Y-102166842D01*
X76315514Y-102214461D01*
X76410752Y-102262080D01*
X76601228Y-102262080D01*
X76696466Y-102214461D01*
X76744085Y-102166842D01*
X76791704Y-102071604D01*
X76791704Y-101881128D01*
X76744085Y-101785890D01*
X76696466Y-101738271D01*
X76601228Y-101690652D01*
X74789212Y-99465540D02*
X74217783Y-99465540D01*
X74503498Y-99465540D02*
X74503498Y-98465540D01*
X74408260Y-98608398D01*
X74313021Y-98703636D01*
X74217783Y-98751255D01*
X75408260Y-98465540D02*
X75503498Y-98465540D01*
X75598736Y-98513160D01*
X75646355Y-98560779D01*
X75693974Y-98656017D01*
X75741593Y-98846493D01*
X75741593Y-99084588D01*
X75693974Y-99275064D01*
X75646355Y-99370302D01*
X75598736Y-99417921D01*
X75503498Y-99465540D01*
X75408260Y-99465540D01*
X75313021Y-99417921D01*
X75265402Y-99370302D01*
X75217783Y-99275064D01*
X75170164Y-99084588D01*
X75170164Y-98846493D01*
X75217783Y-98656017D01*
X75265402Y-98560779D01*
X75313021Y-98513160D01*
X75408260Y-98465540D01*
X76360640Y-98465540D02*
X76455879Y-98465540D01*
X76551117Y-98513160D01*
X76598736Y-98560779D01*
X76646355Y-98656017D01*
X76693974Y-98846493D01*
X76693974Y-99084588D01*
X76646355Y-99275064D01*
X76598736Y-99370302D01*
X76551117Y-99417921D01*
X76455879Y-99465540D01*
X76360640Y-99465540D01*
X76265402Y-99417921D01*
X76217783Y-99370302D01*
X76170164Y-99275064D01*
X76122545Y-99084588D01*
X76122545Y-98846493D01*
X76170164Y-98656017D01*
X76217783Y-98560779D01*
X76265402Y-98513160D01*
X76360640Y-98465540D01*
X77122545Y-98798874D02*
X77122545Y-99465540D01*
X77122545Y-98894112D02*
X77170164Y-98846493D01*
X77265402Y-98798874D01*
X77408260Y-98798874D01*
X77503498Y-98846493D01*
X77551117Y-98941731D01*
X77551117Y-99465540D01*
%TO.C,C6*%
X67366842Y-58836866D02*
X67414461Y-58884485D01*
X67462080Y-59027342D01*
X67462080Y-59122580D01*
X67414461Y-59265438D01*
X67319223Y-59360676D01*
X67223985Y-59408295D01*
X67033509Y-59455914D01*
X66890652Y-59455914D01*
X66700176Y-59408295D01*
X66604938Y-59360676D01*
X66509700Y-59265438D01*
X66462080Y-59122580D01*
X66462080Y-59027342D01*
X66509700Y-58884485D01*
X66557319Y-58836866D01*
X66462080Y-57979723D02*
X66462080Y-58170200D01*
X66509700Y-58265438D01*
X66557319Y-58313057D01*
X66700176Y-58408295D01*
X66890652Y-58455914D01*
X67271604Y-58455914D01*
X67366842Y-58408295D01*
X67414461Y-58360676D01*
X67462080Y-58265438D01*
X67462080Y-58074961D01*
X67414461Y-57979723D01*
X67366842Y-57932104D01*
X67271604Y-57884485D01*
X67033509Y-57884485D01*
X66938271Y-57932104D01*
X66890652Y-57979723D01*
X66843033Y-58074961D01*
X66843033Y-58265438D01*
X66890652Y-58360676D01*
X66938271Y-58408295D01*
X67033509Y-58455914D01*
X64665540Y-59410787D02*
X64665540Y-59982216D01*
X64665540Y-59696501D02*
X63665540Y-59696501D01*
X63808398Y-59791740D01*
X63903636Y-59886978D01*
X63951255Y-59982216D01*
X63665540Y-58791740D02*
X63665540Y-58696501D01*
X63713160Y-58601263D01*
X63760779Y-58553644D01*
X63856017Y-58506025D01*
X64046493Y-58458406D01*
X64284588Y-58458406D01*
X64475064Y-58506025D01*
X64570302Y-58553644D01*
X64617921Y-58601263D01*
X64665540Y-58696501D01*
X64665540Y-58791740D01*
X64617921Y-58886978D01*
X64570302Y-58934597D01*
X64475064Y-58982216D01*
X64284588Y-59029835D01*
X64046493Y-59029835D01*
X63856017Y-58982216D01*
X63760779Y-58934597D01*
X63713160Y-58886978D01*
X63665540Y-58791740D01*
X63665540Y-57839359D02*
X63665540Y-57744120D01*
X63713160Y-57648882D01*
X63760779Y-57601263D01*
X63856017Y-57553644D01*
X64046493Y-57506025D01*
X64284588Y-57506025D01*
X64475064Y-57553644D01*
X64570302Y-57601263D01*
X64617921Y-57648882D01*
X64665540Y-57744120D01*
X64665540Y-57839359D01*
X64617921Y-57934597D01*
X64570302Y-57982216D01*
X64475064Y-58029835D01*
X64284588Y-58077454D01*
X64046493Y-58077454D01*
X63856017Y-58029835D01*
X63760779Y-57982216D01*
X63713160Y-57934597D01*
X63665540Y-57839359D01*
X63998874Y-57077454D02*
X64665540Y-57077454D01*
X64094112Y-57077454D02*
X64046493Y-57029835D01*
X63998874Y-56934597D01*
X63998874Y-56791740D01*
X64046493Y-56696501D01*
X64141731Y-56648882D01*
X64665540Y-56648882D01*
%TO.C,C5*%
X75366842Y-58836866D02*
X75414461Y-58884485D01*
X75462080Y-59027342D01*
X75462080Y-59122580D01*
X75414461Y-59265438D01*
X75319223Y-59360676D01*
X75223985Y-59408295D01*
X75033509Y-59455914D01*
X74890652Y-59455914D01*
X74700176Y-59408295D01*
X74604938Y-59360676D01*
X74509700Y-59265438D01*
X74462080Y-59122580D01*
X74462080Y-59027342D01*
X74509700Y-58884485D01*
X74557319Y-58836866D01*
X74462080Y-57932104D02*
X74462080Y-58408295D01*
X74938271Y-58455914D01*
X74890652Y-58408295D01*
X74843033Y-58313057D01*
X74843033Y-58074961D01*
X74890652Y-57979723D01*
X74938271Y-57932104D01*
X75033509Y-57884485D01*
X75271604Y-57884485D01*
X75366842Y-57932104D01*
X75414461Y-57979723D01*
X75462080Y-58074961D01*
X75462080Y-58313057D01*
X75414461Y-58408295D01*
X75366842Y-58455914D01*
X72665540Y-59410787D02*
X72665540Y-59982216D01*
X72665540Y-59696501D02*
X71665540Y-59696501D01*
X71808398Y-59791740D01*
X71903636Y-59886978D01*
X71951255Y-59982216D01*
X71665540Y-58791740D02*
X71665540Y-58696501D01*
X71713160Y-58601263D01*
X71760779Y-58553644D01*
X71856017Y-58506025D01*
X72046493Y-58458406D01*
X72284588Y-58458406D01*
X72475064Y-58506025D01*
X72570302Y-58553644D01*
X72617921Y-58601263D01*
X72665540Y-58696501D01*
X72665540Y-58791740D01*
X72617921Y-58886978D01*
X72570302Y-58934597D01*
X72475064Y-58982216D01*
X72284588Y-59029835D01*
X72046493Y-59029835D01*
X71856017Y-58982216D01*
X71760779Y-58934597D01*
X71713160Y-58886978D01*
X71665540Y-58791740D01*
X71665540Y-57839359D02*
X71665540Y-57744120D01*
X71713160Y-57648882D01*
X71760779Y-57601263D01*
X71856017Y-57553644D01*
X72046493Y-57506025D01*
X72284588Y-57506025D01*
X72475064Y-57553644D01*
X72570302Y-57601263D01*
X72617921Y-57648882D01*
X72665540Y-57744120D01*
X72665540Y-57839359D01*
X72617921Y-57934597D01*
X72570302Y-57982216D01*
X72475064Y-58029835D01*
X72284588Y-58077454D01*
X72046493Y-58077454D01*
X71856017Y-58029835D01*
X71760779Y-57982216D01*
X71713160Y-57934597D01*
X71665540Y-57839359D01*
X71998874Y-57077454D02*
X72665540Y-57077454D01*
X72094112Y-57077454D02*
X72046493Y-57029835D01*
X71998874Y-56934597D01*
X71998874Y-56791740D01*
X72046493Y-56696501D01*
X72141731Y-56648882D01*
X72665540Y-56648882D01*
%TO.C,C4*%
X99516842Y-64786866D02*
X99564461Y-64834485D01*
X99612080Y-64977342D01*
X99612080Y-65072580D01*
X99564461Y-65215438D01*
X99469223Y-65310676D01*
X99373985Y-65358295D01*
X99183509Y-65405914D01*
X99040652Y-65405914D01*
X98850176Y-65358295D01*
X98754938Y-65310676D01*
X98659700Y-65215438D01*
X98612080Y-65072580D01*
X98612080Y-64977342D01*
X98659700Y-64834485D01*
X98707319Y-64786866D01*
X98945414Y-63929723D02*
X99612080Y-63929723D01*
X98564461Y-64167819D02*
X99278747Y-64405914D01*
X99278747Y-63786866D01*
X96815540Y-65360787D02*
X96815540Y-65932216D01*
X96815540Y-65646501D02*
X95815540Y-65646501D01*
X95958398Y-65741740D01*
X96053636Y-65836978D01*
X96101255Y-65932216D01*
X95815540Y-64741740D02*
X95815540Y-64646501D01*
X95863160Y-64551263D01*
X95910779Y-64503644D01*
X96006017Y-64456025D01*
X96196493Y-64408406D01*
X96434588Y-64408406D01*
X96625064Y-64456025D01*
X96720302Y-64503644D01*
X96767921Y-64551263D01*
X96815540Y-64646501D01*
X96815540Y-64741740D01*
X96767921Y-64836978D01*
X96720302Y-64884597D01*
X96625064Y-64932216D01*
X96434588Y-64979835D01*
X96196493Y-64979835D01*
X96006017Y-64932216D01*
X95910779Y-64884597D01*
X95863160Y-64836978D01*
X95815540Y-64741740D01*
X95815540Y-63789359D02*
X95815540Y-63694120D01*
X95863160Y-63598882D01*
X95910779Y-63551263D01*
X96006017Y-63503644D01*
X96196493Y-63456025D01*
X96434588Y-63456025D01*
X96625064Y-63503644D01*
X96720302Y-63551263D01*
X96767921Y-63598882D01*
X96815540Y-63694120D01*
X96815540Y-63789359D01*
X96767921Y-63884597D01*
X96720302Y-63932216D01*
X96625064Y-63979835D01*
X96434588Y-64027454D01*
X96196493Y-64027454D01*
X96006017Y-63979835D01*
X95910779Y-63932216D01*
X95863160Y-63884597D01*
X95815540Y-63789359D01*
X96148874Y-63027454D02*
X96815540Y-63027454D01*
X96244112Y-63027454D02*
X96196493Y-62979835D01*
X96148874Y-62884597D01*
X96148874Y-62741740D01*
X96196493Y-62646501D01*
X96291731Y-62598882D01*
X96815540Y-62598882D01*
%TO.C,C3*%
X99516842Y-57536866D02*
X99564461Y-57584485D01*
X99612080Y-57727342D01*
X99612080Y-57822580D01*
X99564461Y-57965438D01*
X99469223Y-58060676D01*
X99373985Y-58108295D01*
X99183509Y-58155914D01*
X99040652Y-58155914D01*
X98850176Y-58108295D01*
X98754938Y-58060676D01*
X98659700Y-57965438D01*
X98612080Y-57822580D01*
X98612080Y-57727342D01*
X98659700Y-57584485D01*
X98707319Y-57536866D01*
X98612080Y-57203533D02*
X98612080Y-56584485D01*
X98993033Y-56917819D01*
X98993033Y-56774961D01*
X99040652Y-56679723D01*
X99088271Y-56632104D01*
X99183509Y-56584485D01*
X99421604Y-56584485D01*
X99516842Y-56632104D01*
X99564461Y-56679723D01*
X99612080Y-56774961D01*
X99612080Y-57060676D01*
X99564461Y-57155914D01*
X99516842Y-57203533D01*
X96815540Y-58110787D02*
X96815540Y-58682216D01*
X96815540Y-58396501D02*
X95815540Y-58396501D01*
X95958398Y-58491740D01*
X96053636Y-58586978D01*
X96101255Y-58682216D01*
X95815540Y-57491740D02*
X95815540Y-57396501D01*
X95863160Y-57301263D01*
X95910779Y-57253644D01*
X96006017Y-57206025D01*
X96196493Y-57158406D01*
X96434588Y-57158406D01*
X96625064Y-57206025D01*
X96720302Y-57253644D01*
X96767921Y-57301263D01*
X96815540Y-57396501D01*
X96815540Y-57491740D01*
X96767921Y-57586978D01*
X96720302Y-57634597D01*
X96625064Y-57682216D01*
X96434588Y-57729835D01*
X96196493Y-57729835D01*
X96006017Y-57682216D01*
X95910779Y-57634597D01*
X95863160Y-57586978D01*
X95815540Y-57491740D01*
X95815540Y-56539359D02*
X95815540Y-56444120D01*
X95863160Y-56348882D01*
X95910779Y-56301263D01*
X96006017Y-56253644D01*
X96196493Y-56206025D01*
X96434588Y-56206025D01*
X96625064Y-56253644D01*
X96720302Y-56301263D01*
X96767921Y-56348882D01*
X96815540Y-56444120D01*
X96815540Y-56539359D01*
X96767921Y-56634597D01*
X96720302Y-56682216D01*
X96625064Y-56729835D01*
X96434588Y-56777454D01*
X96196493Y-56777454D01*
X96006017Y-56729835D01*
X95910779Y-56682216D01*
X95863160Y-56634597D01*
X95815540Y-56539359D01*
X96148874Y-55777454D02*
X96815540Y-55777454D01*
X96244112Y-55777454D02*
X96196493Y-55729835D01*
X96148874Y-55634597D01*
X96148874Y-55491740D01*
X96196493Y-55396501D01*
X96291731Y-55348882D01*
X96815540Y-55348882D01*
%TO.C,C2*%
X35703533Y-98947442D02*
X35655914Y-98995061D01*
X35513057Y-99042680D01*
X35417819Y-99042680D01*
X35274961Y-98995061D01*
X35179723Y-98899823D01*
X35132104Y-98804585D01*
X35084485Y-98614109D01*
X35084485Y-98471252D01*
X35132104Y-98280776D01*
X35179723Y-98185538D01*
X35274961Y-98090300D01*
X35417819Y-98042680D01*
X35513057Y-98042680D01*
X35655914Y-98090300D01*
X35703533Y-98137919D01*
X36084485Y-98137919D02*
X36132104Y-98090300D01*
X36227342Y-98042680D01*
X36465438Y-98042680D01*
X36560676Y-98090300D01*
X36608295Y-98137919D01*
X36655914Y-98233157D01*
X36655914Y-98328395D01*
X36608295Y-98471252D01*
X36036866Y-99042680D01*
X36655914Y-99042680D01*
X34372692Y-101839220D02*
X33801263Y-101839220D01*
X34086978Y-101839220D02*
X34086978Y-100839220D01*
X33991740Y-100982078D01*
X33896501Y-101077316D01*
X33801263Y-101124935D01*
X34991740Y-100839220D02*
X35086978Y-100839220D01*
X35182216Y-100886840D01*
X35229835Y-100934459D01*
X35277454Y-101029697D01*
X35325073Y-101220173D01*
X35325073Y-101458268D01*
X35277454Y-101648744D01*
X35229835Y-101743982D01*
X35182216Y-101791601D01*
X35086978Y-101839220D01*
X34991740Y-101839220D01*
X34896501Y-101791601D01*
X34848882Y-101743982D01*
X34801263Y-101648744D01*
X34753644Y-101458268D01*
X34753644Y-101220173D01*
X34801263Y-101029697D01*
X34848882Y-100934459D01*
X34896501Y-100886840D01*
X34991740Y-100839220D01*
X35944120Y-100839220D02*
X36039359Y-100839220D01*
X36134597Y-100886840D01*
X36182216Y-100934459D01*
X36229835Y-101029697D01*
X36277454Y-101220173D01*
X36277454Y-101458268D01*
X36229835Y-101648744D01*
X36182216Y-101743982D01*
X36134597Y-101791601D01*
X36039359Y-101839220D01*
X35944120Y-101839220D01*
X35848882Y-101791601D01*
X35801263Y-101743982D01*
X35753644Y-101648744D01*
X35706025Y-101458268D01*
X35706025Y-101220173D01*
X35753644Y-101029697D01*
X35801263Y-100934459D01*
X35848882Y-100886840D01*
X35944120Y-100839220D01*
X36706025Y-101172554D02*
X36706025Y-101839220D01*
X36706025Y-101267792D02*
X36753644Y-101220173D01*
X36848882Y-101172554D01*
X36991740Y-101172554D01*
X37086978Y-101220173D01*
X37134597Y-101315411D01*
X37134597Y-101839220D01*
%TO.C,C1*%
X43503533Y-98947442D02*
X43455914Y-98995061D01*
X43313057Y-99042680D01*
X43217819Y-99042680D01*
X43074961Y-98995061D01*
X42979723Y-98899823D01*
X42932104Y-98804585D01*
X42884485Y-98614109D01*
X42884485Y-98471252D01*
X42932104Y-98280776D01*
X42979723Y-98185538D01*
X43074961Y-98090300D01*
X43217819Y-98042680D01*
X43313057Y-98042680D01*
X43455914Y-98090300D01*
X43503533Y-98137919D01*
X44455914Y-99042680D02*
X43884485Y-99042680D01*
X44170200Y-99042680D02*
X44170200Y-98042680D01*
X44074961Y-98185538D01*
X43979723Y-98280776D01*
X43884485Y-98328395D01*
X42172692Y-101839220D02*
X41601263Y-101839220D01*
X41886978Y-101839220D02*
X41886978Y-100839220D01*
X41791740Y-100982078D01*
X41696501Y-101077316D01*
X41601263Y-101124935D01*
X42791740Y-100839220D02*
X42886978Y-100839220D01*
X42982216Y-100886840D01*
X43029835Y-100934459D01*
X43077454Y-101029697D01*
X43125073Y-101220173D01*
X43125073Y-101458268D01*
X43077454Y-101648744D01*
X43029835Y-101743982D01*
X42982216Y-101791601D01*
X42886978Y-101839220D01*
X42791740Y-101839220D01*
X42696501Y-101791601D01*
X42648882Y-101743982D01*
X42601263Y-101648744D01*
X42553644Y-101458268D01*
X42553644Y-101220173D01*
X42601263Y-101029697D01*
X42648882Y-100934459D01*
X42696501Y-100886840D01*
X42791740Y-100839220D01*
X43744120Y-100839220D02*
X43839359Y-100839220D01*
X43934597Y-100886840D01*
X43982216Y-100934459D01*
X44029835Y-101029697D01*
X44077454Y-101220173D01*
X44077454Y-101458268D01*
X44029835Y-101648744D01*
X43982216Y-101743982D01*
X43934597Y-101791601D01*
X43839359Y-101839220D01*
X43744120Y-101839220D01*
X43648882Y-101791601D01*
X43601263Y-101743982D01*
X43553644Y-101648744D01*
X43506025Y-101458268D01*
X43506025Y-101220173D01*
X43553644Y-101029697D01*
X43601263Y-100934459D01*
X43648882Y-100886840D01*
X43744120Y-100839220D01*
X44506025Y-101172554D02*
X44506025Y-101839220D01*
X44506025Y-101267792D02*
X44553644Y-101220173D01*
X44648882Y-101172554D01*
X44791740Y-101172554D01*
X44886978Y-101220173D01*
X44934597Y-101315411D01*
X44934597Y-101839220D01*
%TO.C,RV11*%
X29135571Y-33112380D02*
X28802238Y-32636190D01*
X28564142Y-33112380D02*
X28564142Y-32112380D01*
X28945095Y-32112380D01*
X29040333Y-32160000D01*
X29087952Y-32207619D01*
X29135571Y-32302857D01*
X29135571Y-32445714D01*
X29087952Y-32540952D01*
X29040333Y-32588571D01*
X28945095Y-32636190D01*
X28564142Y-32636190D01*
X29421285Y-32112380D02*
X29754619Y-33112380D01*
X30087952Y-32112380D01*
X30945095Y-33112380D02*
X30373666Y-33112380D01*
X30659380Y-33112380D02*
X30659380Y-32112380D01*
X30564142Y-32255238D01*
X30468904Y-32350476D01*
X30373666Y-32398095D01*
X31897476Y-33112380D02*
X31326047Y-33112380D01*
X31611761Y-33112380D02*
X31611761Y-32112380D01*
X31516523Y-32255238D01*
X31421285Y-32350476D01*
X31326047Y-32398095D01*
X25693904Y-33742380D02*
X25932000Y-34742380D01*
X26122476Y-34028095D01*
X26312952Y-34742380D01*
X26551047Y-33742380D01*
X26884380Y-34456666D02*
X27360571Y-34456666D01*
X26789142Y-34742380D02*
X27122476Y-33742380D01*
X27455809Y-34742380D01*
X27646285Y-33742380D02*
X27979619Y-34742380D01*
X28312952Y-33742380D01*
X28646285Y-34218571D02*
X28979619Y-34218571D01*
X29122476Y-34742380D02*
X28646285Y-34742380D01*
X28646285Y-33742380D01*
X29122476Y-33742380D01*
%TO.C,RV12*%
X72885571Y-78112380D02*
X72552238Y-77636190D01*
X72314142Y-78112380D02*
X72314142Y-77112380D01*
X72695095Y-77112380D01*
X72790333Y-77160000D01*
X72837952Y-77207619D01*
X72885571Y-77302857D01*
X72885571Y-77445714D01*
X72837952Y-77540952D01*
X72790333Y-77588571D01*
X72695095Y-77636190D01*
X72314142Y-77636190D01*
X73171285Y-77112380D02*
X73504619Y-78112380D01*
X73837952Y-77112380D01*
X74695095Y-78112380D02*
X74123666Y-78112380D01*
X74409380Y-78112380D02*
X74409380Y-77112380D01*
X74314142Y-77255238D01*
X74218904Y-77350476D01*
X74123666Y-77398095D01*
X75076047Y-77207619D02*
X75123666Y-77160000D01*
X75218904Y-77112380D01*
X75457000Y-77112380D01*
X75552238Y-77160000D01*
X75599857Y-77207619D01*
X75647476Y-77302857D01*
X75647476Y-77398095D01*
X75599857Y-77540952D01*
X75028428Y-78112380D01*
X75647476Y-78112380D01*
X68897714Y-79605142D02*
X68850095Y-79652761D01*
X68707238Y-79700380D01*
X68612000Y-79700380D01*
X68469142Y-79652761D01*
X68373904Y-79557523D01*
X68326285Y-79462285D01*
X68278666Y-79271809D01*
X68278666Y-79128952D01*
X68326285Y-78938476D01*
X68373904Y-78843238D01*
X68469142Y-78748000D01*
X68612000Y-78700380D01*
X68707238Y-78700380D01*
X68850095Y-78748000D01*
X68897714Y-78795619D01*
X69897714Y-79700380D02*
X69564380Y-79224190D01*
X69326285Y-79700380D02*
X69326285Y-78700380D01*
X69707238Y-78700380D01*
X69802476Y-78748000D01*
X69850095Y-78795619D01*
X69897714Y-78890857D01*
X69897714Y-79033714D01*
X69850095Y-79128952D01*
X69802476Y-79176571D01*
X69707238Y-79224190D01*
X69326285Y-79224190D01*
X70326285Y-78700380D02*
X70326285Y-79509904D01*
X70373904Y-79605142D01*
X70421523Y-79652761D01*
X70516761Y-79700380D01*
X70707238Y-79700380D01*
X70802476Y-79652761D01*
X70850095Y-79605142D01*
X70897714Y-79509904D01*
X70897714Y-78700380D01*
X71326285Y-79652761D02*
X71469142Y-79700380D01*
X71707238Y-79700380D01*
X71802476Y-79652761D01*
X71850095Y-79605142D01*
X71897714Y-79509904D01*
X71897714Y-79414666D01*
X71850095Y-79319428D01*
X71802476Y-79271809D01*
X71707238Y-79224190D01*
X71516761Y-79176571D01*
X71421523Y-79128952D01*
X71373904Y-79081333D01*
X71326285Y-78986095D01*
X71326285Y-78890857D01*
X71373904Y-78795619D01*
X71421523Y-78748000D01*
X71516761Y-78700380D01*
X71754857Y-78700380D01*
X71897714Y-78748000D01*
X72326285Y-79700380D02*
X72326285Y-78700380D01*
X72326285Y-79176571D02*
X72897714Y-79176571D01*
X72897714Y-79700380D02*
X72897714Y-78700380D01*
%TO.C,RV10*%
X97885571Y-78112380D02*
X97552238Y-77636190D01*
X97314142Y-78112380D02*
X97314142Y-77112380D01*
X97695095Y-77112380D01*
X97790333Y-77160000D01*
X97837952Y-77207619D01*
X97885571Y-77302857D01*
X97885571Y-77445714D01*
X97837952Y-77540952D01*
X97790333Y-77588571D01*
X97695095Y-77636190D01*
X97314142Y-77636190D01*
X98171285Y-77112380D02*
X98504619Y-78112380D01*
X98837952Y-77112380D01*
X99695095Y-78112380D02*
X99123666Y-78112380D01*
X99409380Y-78112380D02*
X99409380Y-77112380D01*
X99314142Y-77255238D01*
X99218904Y-77350476D01*
X99123666Y-77398095D01*
X100314142Y-77112380D02*
X100409380Y-77112380D01*
X100504619Y-77160000D01*
X100552238Y-77207619D01*
X100599857Y-77302857D01*
X100647476Y-77493333D01*
X100647476Y-77731428D01*
X100599857Y-77921904D01*
X100552238Y-78017142D01*
X100504619Y-78064761D01*
X100409380Y-78112380D01*
X100314142Y-78112380D01*
X100218904Y-78064761D01*
X100171285Y-78017142D01*
X100123666Y-77921904D01*
X100076047Y-77731428D01*
X100076047Y-77493333D01*
X100123666Y-77302857D01*
X100171285Y-77207619D01*
X100218904Y-77160000D01*
X100314142Y-77112380D01*
X94678666Y-78748000D02*
X94583428Y-78700380D01*
X94440571Y-78700380D01*
X94297714Y-78748000D01*
X94202476Y-78843238D01*
X94154857Y-78938476D01*
X94107238Y-79128952D01*
X94107238Y-79271809D01*
X94154857Y-79462285D01*
X94202476Y-79557523D01*
X94297714Y-79652761D01*
X94440571Y-79700380D01*
X94535809Y-79700380D01*
X94678666Y-79652761D01*
X94726285Y-79605142D01*
X94726285Y-79271809D01*
X94535809Y-79271809D01*
X95631047Y-79700380D02*
X95154857Y-79700380D01*
X95154857Y-78700380D01*
X95964380Y-79700380D02*
X95964380Y-78700380D01*
X96440571Y-79700380D02*
X96440571Y-78700380D01*
X96678666Y-78700380D01*
X96821523Y-78748000D01*
X96916761Y-78843238D01*
X96964380Y-78938476D01*
X97012000Y-79128952D01*
X97012000Y-79271809D01*
X96964380Y-79462285D01*
X96916761Y-79557523D01*
X96821523Y-79652761D01*
X96678666Y-79700380D01*
X96440571Y-79700380D01*
X97440571Y-79176571D02*
X97773904Y-79176571D01*
X97916761Y-79700380D02*
X97440571Y-79700380D01*
X97440571Y-78700380D01*
X97916761Y-78700380D01*
%TO.C,RV9*%
X48361761Y-78112380D02*
X48028428Y-77636190D01*
X47790333Y-78112380D02*
X47790333Y-77112380D01*
X48171285Y-77112380D01*
X48266523Y-77160000D01*
X48314142Y-77207619D01*
X48361761Y-77302857D01*
X48361761Y-77445714D01*
X48314142Y-77540952D01*
X48266523Y-77588571D01*
X48171285Y-77636190D01*
X47790333Y-77636190D01*
X48647476Y-77112380D02*
X48980809Y-78112380D01*
X49314142Y-77112380D01*
X49695095Y-78112380D02*
X49885571Y-78112380D01*
X49980809Y-78064761D01*
X50028428Y-78017142D01*
X50123666Y-77874285D01*
X50171285Y-77683809D01*
X50171285Y-77302857D01*
X50123666Y-77207619D01*
X50076047Y-77160000D01*
X49980809Y-77112380D01*
X49790333Y-77112380D01*
X49695095Y-77160000D01*
X49647476Y-77207619D01*
X49599857Y-77302857D01*
X49599857Y-77540952D01*
X49647476Y-77636190D01*
X49695095Y-77683809D01*
X49790333Y-77731428D01*
X49980809Y-77731428D01*
X50076047Y-77683809D01*
X50123666Y-77636190D01*
X50171285Y-77540952D01*
X45410571Y-79176571D02*
X45077238Y-79176571D01*
X45077238Y-79700380D02*
X45077238Y-78700380D01*
X45553428Y-78700380D01*
X45934380Y-79700380D02*
X45934380Y-78700380D01*
X46410571Y-79700380D02*
X46410571Y-78700380D01*
X46982000Y-79700380D01*
X46982000Y-78700380D01*
X47458190Y-79176571D02*
X47791523Y-79176571D01*
X47934380Y-79700380D02*
X47458190Y-79700380D01*
X47458190Y-78700380D01*
X47934380Y-78700380D01*
%TO.C,RV8*%
X92111761Y-33112380D02*
X91778428Y-32636190D01*
X91540333Y-33112380D02*
X91540333Y-32112380D01*
X91921285Y-32112380D01*
X92016523Y-32160000D01*
X92064142Y-32207619D01*
X92111761Y-32302857D01*
X92111761Y-32445714D01*
X92064142Y-32540952D01*
X92016523Y-32588571D01*
X91921285Y-32636190D01*
X91540333Y-32636190D01*
X92397476Y-32112380D02*
X92730809Y-33112380D01*
X93064142Y-32112380D01*
X93540333Y-32540952D02*
X93445095Y-32493333D01*
X93397476Y-32445714D01*
X93349857Y-32350476D01*
X93349857Y-32302857D01*
X93397476Y-32207619D01*
X93445095Y-32160000D01*
X93540333Y-32112380D01*
X93730809Y-32112380D01*
X93826047Y-32160000D01*
X93873666Y-32207619D01*
X93921285Y-32302857D01*
X93921285Y-32350476D01*
X93873666Y-32445714D01*
X93826047Y-32493333D01*
X93730809Y-32540952D01*
X93540333Y-32540952D01*
X93445095Y-32588571D01*
X93397476Y-32636190D01*
X93349857Y-32731428D01*
X93349857Y-32921904D01*
X93397476Y-33017142D01*
X93445095Y-33064761D01*
X93540333Y-33112380D01*
X93730809Y-33112380D01*
X93826047Y-33064761D01*
X93873666Y-33017142D01*
X93921285Y-32921904D01*
X93921285Y-32731428D01*
X93873666Y-32636190D01*
X93826047Y-32588571D01*
X93730809Y-32540952D01*
X88606476Y-34440761D02*
X88749333Y-34488380D01*
X88987428Y-34488380D01*
X89082666Y-34440761D01*
X89130285Y-34393142D01*
X89177904Y-34297904D01*
X89177904Y-34202666D01*
X89130285Y-34107428D01*
X89082666Y-34059809D01*
X88987428Y-34012190D01*
X88796952Y-33964571D01*
X88701714Y-33916952D01*
X88654095Y-33869333D01*
X88606476Y-33774095D01*
X88606476Y-33678857D01*
X88654095Y-33583619D01*
X88701714Y-33536000D01*
X88796952Y-33488380D01*
X89035047Y-33488380D01*
X89177904Y-33536000D01*
X89606476Y-33488380D02*
X89606476Y-34297904D01*
X89654095Y-34393142D01*
X89701714Y-34440761D01*
X89796952Y-34488380D01*
X89987428Y-34488380D01*
X90082666Y-34440761D01*
X90130285Y-34393142D01*
X90177904Y-34297904D01*
X90177904Y-33488380D01*
X90987428Y-33964571D02*
X91130285Y-34012190D01*
X91177904Y-34059809D01*
X91225523Y-34155047D01*
X91225523Y-34297904D01*
X91177904Y-34393142D01*
X91130285Y-34440761D01*
X91035047Y-34488380D01*
X90654095Y-34488380D01*
X90654095Y-33488380D01*
X90987428Y-33488380D01*
X91082666Y-33536000D01*
X91130285Y-33583619D01*
X91177904Y-33678857D01*
X91177904Y-33774095D01*
X91130285Y-33869333D01*
X91082666Y-33916952D01*
X90987428Y-33964571D01*
X90654095Y-33964571D01*
%TO.C,RV7*%
X23361761Y-78112380D02*
X23028428Y-77636190D01*
X22790333Y-78112380D02*
X22790333Y-77112380D01*
X23171285Y-77112380D01*
X23266523Y-77160000D01*
X23314142Y-77207619D01*
X23361761Y-77302857D01*
X23361761Y-77445714D01*
X23314142Y-77540952D01*
X23266523Y-77588571D01*
X23171285Y-77636190D01*
X22790333Y-77636190D01*
X23647476Y-77112380D02*
X23980809Y-78112380D01*
X24314142Y-77112380D01*
X24552238Y-77112380D02*
X25218904Y-77112380D01*
X24790333Y-78112380D01*
X15288095Y-79430571D02*
X14954761Y-79430571D01*
X14954761Y-79954380D02*
X14954761Y-78954380D01*
X15430952Y-78954380D01*
X16383333Y-79954380D02*
X16050000Y-79478190D01*
X15811904Y-79954380D02*
X15811904Y-78954380D01*
X16192857Y-78954380D01*
X16288095Y-79002000D01*
X16335714Y-79049619D01*
X16383333Y-79144857D01*
X16383333Y-79287714D01*
X16335714Y-79382952D01*
X16288095Y-79430571D01*
X16192857Y-79478190D01*
X15811904Y-79478190D01*
X16811904Y-79430571D02*
X17145238Y-79430571D01*
X17288095Y-79954380D02*
X16811904Y-79954380D01*
X16811904Y-78954380D01*
X17288095Y-78954380D01*
X18383333Y-80049619D02*
X18288095Y-80002000D01*
X18192857Y-79906761D01*
X18050000Y-79763904D01*
X17954761Y-79716285D01*
X17859523Y-79716285D01*
X17907142Y-79954380D02*
X17811904Y-79906761D01*
X17716666Y-79811523D01*
X17669047Y-79621047D01*
X17669047Y-79287714D01*
X17716666Y-79097238D01*
X17811904Y-79002000D01*
X17907142Y-78954380D01*
X18097619Y-78954380D01*
X18192857Y-79002000D01*
X18288095Y-79097238D01*
X18335714Y-79287714D01*
X18335714Y-79621047D01*
X18288095Y-79811523D01*
X18192857Y-79906761D01*
X18097619Y-79954380D01*
X17907142Y-79954380D01*
X18764285Y-78954380D02*
X18764285Y-79763904D01*
X18811904Y-79859142D01*
X18859523Y-79906761D01*
X18954761Y-79954380D01*
X19145238Y-79954380D01*
X19240476Y-79906761D01*
X19288095Y-79859142D01*
X19335714Y-79763904D01*
X19335714Y-78954380D01*
X19811904Y-79430571D02*
X20145238Y-79430571D01*
X20288095Y-79954380D02*
X19811904Y-79954380D01*
X19811904Y-78954380D01*
X20288095Y-78954380D01*
X20716666Y-79954380D02*
X20716666Y-78954380D01*
X21288095Y-79954380D01*
X21288095Y-78954380D01*
X22335714Y-79859142D02*
X22288095Y-79906761D01*
X22145238Y-79954380D01*
X22050000Y-79954380D01*
X21907142Y-79906761D01*
X21811904Y-79811523D01*
X21764285Y-79716285D01*
X21716666Y-79525809D01*
X21716666Y-79382952D01*
X21764285Y-79192476D01*
X21811904Y-79097238D01*
X21907142Y-79002000D01*
X22050000Y-78954380D01*
X22145238Y-78954380D01*
X22288095Y-79002000D01*
X22335714Y-79049619D01*
X22954761Y-79478190D02*
X22954761Y-79954380D01*
X22621428Y-78954380D02*
X22954761Y-79478190D01*
X23288095Y-78954380D01*
%TO.C,RV3*%
X73361761Y-108112380D02*
X73028428Y-107636190D01*
X72790333Y-108112380D02*
X72790333Y-107112380D01*
X73171285Y-107112380D01*
X73266523Y-107160000D01*
X73314142Y-107207619D01*
X73361761Y-107302857D01*
X73361761Y-107445714D01*
X73314142Y-107540952D01*
X73266523Y-107588571D01*
X73171285Y-107636190D01*
X72790333Y-107636190D01*
X73647476Y-107112380D02*
X73980809Y-108112380D01*
X74314142Y-107112380D01*
X74552238Y-107112380D02*
X75171285Y-107112380D01*
X74837952Y-107493333D01*
X74980809Y-107493333D01*
X75076047Y-107540952D01*
X75123666Y-107588571D01*
X75171285Y-107683809D01*
X75171285Y-107921904D01*
X75123666Y-108017142D01*
X75076047Y-108064761D01*
X74980809Y-108112380D01*
X74695095Y-108112380D01*
X74599857Y-108064761D01*
X74552238Y-108017142D01*
X67223047Y-109878761D02*
X67365904Y-109926380D01*
X67604000Y-109926380D01*
X67699238Y-109878761D01*
X67746857Y-109831142D01*
X67794476Y-109735904D01*
X67794476Y-109640666D01*
X67746857Y-109545428D01*
X67699238Y-109497809D01*
X67604000Y-109450190D01*
X67413523Y-109402571D01*
X67318285Y-109354952D01*
X67270666Y-109307333D01*
X67223047Y-109212095D01*
X67223047Y-109116857D01*
X67270666Y-109021619D01*
X67318285Y-108974000D01*
X67413523Y-108926380D01*
X67651619Y-108926380D01*
X67794476Y-108974000D01*
X68223047Y-108926380D02*
X68223047Y-109735904D01*
X68270666Y-109831142D01*
X68318285Y-109878761D01*
X68413523Y-109926380D01*
X68604000Y-109926380D01*
X68699238Y-109878761D01*
X68746857Y-109831142D01*
X68794476Y-109735904D01*
X68794476Y-108926380D01*
X69604000Y-109402571D02*
X69746857Y-109450190D01*
X69794476Y-109497809D01*
X69842095Y-109593047D01*
X69842095Y-109735904D01*
X69794476Y-109831142D01*
X69746857Y-109878761D01*
X69651619Y-109926380D01*
X69270666Y-109926380D01*
X69270666Y-108926380D01*
X69604000Y-108926380D01*
X69699238Y-108974000D01*
X69746857Y-109021619D01*
X69794476Y-109116857D01*
X69794476Y-109212095D01*
X69746857Y-109307333D01*
X69699238Y-109354952D01*
X69604000Y-109402571D01*
X69270666Y-109402571D01*
X70984952Y-109640666D02*
X71461142Y-109640666D01*
X70889714Y-109926380D02*
X71223047Y-108926380D01*
X71556380Y-109926380D01*
X71746857Y-108926380D02*
X72318285Y-108926380D01*
X72032571Y-109926380D02*
X72032571Y-108926380D01*
X72508761Y-108926380D02*
X73080190Y-108926380D01*
X72794476Y-109926380D02*
X72794476Y-108926380D01*
%TO.C,RV2*%
X48361761Y-108112380D02*
X48028428Y-107636190D01*
X47790333Y-108112380D02*
X47790333Y-107112380D01*
X48171285Y-107112380D01*
X48266523Y-107160000D01*
X48314142Y-107207619D01*
X48361761Y-107302857D01*
X48361761Y-107445714D01*
X48314142Y-107540952D01*
X48266523Y-107588571D01*
X48171285Y-107636190D01*
X47790333Y-107636190D01*
X48647476Y-107112380D02*
X48980809Y-108112380D01*
X49314142Y-107112380D01*
X49599857Y-107207619D02*
X49647476Y-107160000D01*
X49742714Y-107112380D01*
X49980809Y-107112380D01*
X50076047Y-107160000D01*
X50123666Y-107207619D01*
X50171285Y-107302857D01*
X50171285Y-107398095D01*
X50123666Y-107540952D01*
X49552238Y-108112380D01*
X50171285Y-108112380D01*
X41394476Y-108672380D02*
X41632571Y-109672380D01*
X41823047Y-108958095D01*
X42013523Y-109672380D01*
X42251619Y-108672380D01*
X42584952Y-109386666D02*
X43061142Y-109386666D01*
X42489714Y-109672380D02*
X42823047Y-108672380D01*
X43156380Y-109672380D01*
X43346857Y-108672380D02*
X43680190Y-109672380D01*
X44013523Y-108672380D01*
X44346857Y-109148571D02*
X44680190Y-109148571D01*
X44823047Y-109672380D02*
X44346857Y-109672380D01*
X44346857Y-108672380D01*
X44823047Y-108672380D01*
X45965904Y-109386666D02*
X46442095Y-109386666D01*
X45870666Y-109672380D02*
X46204000Y-108672380D01*
X46537333Y-109672380D01*
X46727809Y-108672380D02*
X47299238Y-108672380D01*
X47013523Y-109672380D02*
X47013523Y-108672380D01*
X47489714Y-108672380D02*
X48061142Y-108672380D01*
X47775428Y-109672380D02*
X47775428Y-108672380D01*
%TO.C,RV1*%
X23361761Y-108112380D02*
X23028428Y-107636190D01*
X22790333Y-108112380D02*
X22790333Y-107112380D01*
X23171285Y-107112380D01*
X23266523Y-107160000D01*
X23314142Y-107207619D01*
X23361761Y-107302857D01*
X23361761Y-107445714D01*
X23314142Y-107540952D01*
X23266523Y-107588571D01*
X23171285Y-107636190D01*
X22790333Y-107636190D01*
X23647476Y-107112380D02*
X23980809Y-108112380D01*
X24314142Y-107112380D01*
X25171285Y-108112380D02*
X24599857Y-108112380D01*
X24885571Y-108112380D02*
X24885571Y-107112380D01*
X24790333Y-107255238D01*
X24695095Y-107350476D01*
X24599857Y-107398095D01*
X15613428Y-109418380D02*
X15613428Y-108418380D01*
X15946761Y-109132666D01*
X16280095Y-108418380D01*
X16280095Y-109418380D01*
X16946761Y-108418380D02*
X17137238Y-108418380D01*
X17232476Y-108466000D01*
X17327714Y-108561238D01*
X17375333Y-108751714D01*
X17375333Y-109085047D01*
X17327714Y-109275523D01*
X17232476Y-109370761D01*
X17137238Y-109418380D01*
X16946761Y-109418380D01*
X16851523Y-109370761D01*
X16756285Y-109275523D01*
X16708666Y-109085047D01*
X16708666Y-108751714D01*
X16756285Y-108561238D01*
X16851523Y-108466000D01*
X16946761Y-108418380D01*
X17803904Y-109418380D02*
X17803904Y-108418380D01*
X18042000Y-108418380D01*
X18184857Y-108466000D01*
X18280095Y-108561238D01*
X18327714Y-108656476D01*
X18375333Y-108846952D01*
X18375333Y-108989809D01*
X18327714Y-109180285D01*
X18280095Y-109275523D01*
X18184857Y-109370761D01*
X18042000Y-109418380D01*
X17803904Y-109418380D01*
X19518190Y-109132666D02*
X19994380Y-109132666D01*
X19422952Y-109418380D02*
X19756285Y-108418380D01*
X20089619Y-109418380D01*
X20280095Y-108418380D02*
X20851523Y-108418380D01*
X20565809Y-109418380D02*
X20565809Y-108418380D01*
X21042000Y-108418380D02*
X21613428Y-108418380D01*
X21327714Y-109418380D02*
X21327714Y-108418380D01*
%TO.C,R36*%
D12*
X63921428Y-100585714D02*
X63635714Y-100785714D01*
X63921428Y-100928571D02*
X63321428Y-100928571D01*
X63321428Y-100700000D01*
X63350000Y-100642857D01*
X63378571Y-100614285D01*
X63435714Y-100585714D01*
X63521428Y-100585714D01*
X63578571Y-100614285D01*
X63607142Y-100642857D01*
X63635714Y-100700000D01*
X63635714Y-100928571D01*
X63321428Y-100385714D02*
X63321428Y-100014285D01*
X63550000Y-100214285D01*
X63550000Y-100128571D01*
X63578571Y-100071428D01*
X63607142Y-100042857D01*
X63664285Y-100014285D01*
X63807142Y-100014285D01*
X63864285Y-100042857D01*
X63892857Y-100071428D01*
X63921428Y-100128571D01*
X63921428Y-100300000D01*
X63892857Y-100357142D01*
X63864285Y-100385714D01*
X63321428Y-99500000D02*
X63321428Y-99614285D01*
X63350000Y-99671428D01*
X63378571Y-99700000D01*
X63464285Y-99757142D01*
X63578571Y-99785714D01*
X63807142Y-99785714D01*
X63864285Y-99757142D01*
X63892857Y-99728571D01*
X63921428Y-99671428D01*
X63921428Y-99557142D01*
X63892857Y-99500000D01*
X63864285Y-99471428D01*
X63807142Y-99442857D01*
X63664285Y-99442857D01*
X63607142Y-99471428D01*
X63578571Y-99500000D01*
X63550000Y-99557142D01*
X63550000Y-99671428D01*
X63578571Y-99728571D01*
X63607142Y-99757142D01*
X63664285Y-99785714D01*
D11*
X65594761Y-100652380D02*
X65023333Y-100652380D01*
X65309047Y-100652380D02*
X65309047Y-99652380D01*
X65213809Y-99795238D01*
X65118571Y-99890476D01*
X65023333Y-99938095D01*
X66213809Y-99652380D02*
X66309047Y-99652380D01*
X66404285Y-99700000D01*
X66451904Y-99747619D01*
X66499523Y-99842857D01*
X66547142Y-100033333D01*
X66547142Y-100271428D01*
X66499523Y-100461904D01*
X66451904Y-100557142D01*
X66404285Y-100604761D01*
X66309047Y-100652380D01*
X66213809Y-100652380D01*
X66118571Y-100604761D01*
X66070952Y-100557142D01*
X66023333Y-100461904D01*
X65975714Y-100271428D01*
X65975714Y-100033333D01*
X66023333Y-99842857D01*
X66070952Y-99747619D01*
X66118571Y-99700000D01*
X66213809Y-99652380D01*
X66975714Y-100652380D02*
X66975714Y-99652380D01*
X67070952Y-100271428D02*
X67356666Y-100652380D01*
X67356666Y-99985714D02*
X66975714Y-100366666D01*
%TO.C,JP1*%
X84520380Y-80081333D02*
X85234666Y-80081333D01*
X85377523Y-80128952D01*
X85472761Y-80224190D01*
X85520380Y-80367047D01*
X85520380Y-80462285D01*
X85520380Y-79605142D02*
X84520380Y-79605142D01*
X84520380Y-79224190D01*
X84568000Y-79128952D01*
X84615619Y-79081333D01*
X84710857Y-79033714D01*
X84853714Y-79033714D01*
X84948952Y-79081333D01*
X84996571Y-79128952D01*
X85044190Y-79224190D01*
X85044190Y-79605142D01*
X85520380Y-78081333D02*
X85520380Y-78652761D01*
X85520380Y-78367047D02*
X84520380Y-78367047D01*
X84663238Y-78462285D01*
X84758476Y-78557523D01*
X84806095Y-78652761D01*
%TD*%
M02*
