M48
; DRILL file {KiCad (5.1.9)-1} date 06/30/21 11:22:06
; FORMAT={-:-/ absolute / inch / decimal}
; #@! TF.CreationDate,2021-06-30T11:22:06+01:00
; #@! TF.GenerationSoftware,Kicad,Pcbnew,(5.1.9)-1
; #@! TF.FileFunction,Plated,1,2,PTH
FMAT,2
INCH
T1C0.0157
T2C0.0295
T3C0.0315
T4C0.0394
T5C0.0433
T6C0.0709
%
G90
G05
T1
X0.58Y-4.97
X0.61Y-4.11
X0.73Y-1.99
X1.19Y-3.68
X1.2288Y-2.6688
X1.35Y-3.87
X1.4006Y-3.7106
X1.6Y-4.6
X1.63Y-3.07
X1.67Y-2.27
X1.69Y-3.89
X1.69Y-4.17
X1.71Y-3.61
X1.75Y-3.29
X1.76Y-3.49
X1.8Y-3.84
X1.92Y-1.7
X1.92Y-4.13
X1.99Y-4.16
X2.04Y-1.91
X2.35Y-3.29
X2.53Y-2.52
X2.54Y-3.65
X2.65Y-2.31
X2.66Y-3.6
X2.78Y-3.2
X2.78Y-4.27
X2.81Y-3.97
X2.8168Y-4.5368
X2.82Y-3.29
X2.92Y-2.53
X2.93Y-2.46
X2.98Y-4.56
X3.01Y-3.95
X3.07Y-3.35
X3.16Y-4.0
X3.2Y-2.7
X3.23Y-3.89
X3.25Y-3.38
X3.28Y-4.14
X3.48Y-4.19
X3.63Y-2.07
X3.92Y-2.86
X3.9995Y-2.8287
X4.05Y-3.04
X4.18Y-2.47
T2
X3.4669Y-4.937
X3.5169Y-4.887
X3.5669Y-4.937
T3
X0.685Y-4.1969
X0.7008Y-3.7953
X0.7008Y-3.8953
X0.7008Y-3.9953
X0.874Y-3.7394
X0.874Y-4.0394
X0.985Y-4.1969
X1.0Y-3.7394
X1.0Y-4.0394
X1.0157Y-4.9055
X1.0827Y-1.9882
X1.0925Y-2.8937
X1.1157Y-4.9055
X1.1469Y-2.4705
X1.1811Y-1.9882
X1.1811Y-4.1961
X1.1811Y-4.4961
X1.1909Y-2.8937
X1.2157Y-4.9055
X1.2433Y-3.7866
X1.2433Y-4.0866
X1.2992Y-3.937
X1.3071Y-4.1961
X1.3071Y-4.4961
X1.3433Y-3.7866
X1.3433Y-4.0866
X1.4331Y-4.1961
X1.4331Y-4.4961
X1.437Y-1.9882
X1.4409Y-4.6685
X1.4409Y-4.9685
X1.4433Y-3.7866
X1.4433Y-4.0866
X1.4469Y-2.4705
X1.4469Y-2.8937
X1.4961Y-3.937
X1.5354Y-1.9882
X1.5433Y-3.7866
X1.5433Y-4.0866
X1.5453Y-2.8937
X1.5591Y-4.1961
X1.5591Y-4.4961
X1.6063Y-3.937
X1.6433Y-3.7866
X1.6433Y-4.0866
X1.7433Y-3.7866
X1.7433Y-4.0866
X1.7795Y-3.0079
X1.8031Y-3.937
X1.8268Y-2.8268
X1.8268Y-3.3772
X1.8268Y-3.6772
X1.8346Y-4.1969
X1.8346Y-4.4969
X1.8433Y-3.7866
X1.8433Y-4.0866
X1.9268Y-2.8268
X1.9685Y-3.7874
X1.9685Y-3.9055
X1.9685Y-4.0157
X2.0268Y-2.8268
X2.0795Y-3.0079
X2.1024Y-3.3693
X2.1024Y-3.6693
X2.2205Y-3.3701
X2.2205Y-3.6701
X2.2677Y-2.0945
X2.2677Y-2.2913
X2.2685Y-3.7874
X2.2685Y-3.9055
X2.2685Y-4.0157
X2.3071Y-2.385
X2.3071Y-2.685
X2.3307Y-3.3693
X2.3307Y-3.6693
X2.3937Y-3.7945
X2.3937Y-4.0945
X2.4173Y-2.6299
X2.4331Y-2.1567
X2.4331Y-2.2567
X2.4331Y-2.3567
X2.4331Y-2.4567
X2.4559Y-3.9449
X2.4937Y-3.7945
X2.4937Y-4.0945
X2.5276Y-4.3772
X2.5276Y-4.6772
X2.5827Y-2.1969
X2.5827Y-2.3937
X2.5937Y-3.7945
X2.5937Y-4.0945
X2.6142Y-2.6299
X2.6937Y-3.7945
X2.6937Y-4.0945
X2.7323Y-2.6063
X2.7323Y-2.9063
X2.7331Y-2.1567
X2.7331Y-2.2567
X2.7331Y-2.3567
X2.7331Y-2.4567
X2.7559Y-3.9449
X2.7937Y-3.7945
X2.7937Y-4.0945
X2.8583Y-2.6055
X2.8583Y-2.9055
X2.8898Y-3.9528
X2.8937Y-3.7945
X2.8937Y-4.0945
X2.8976Y-2.1969
X2.8976Y-2.3937
X2.9843Y-2.6063
X2.9843Y-2.9063
X2.9937Y-3.7945
X2.9937Y-4.0945
X3.0866Y-3.9528
X3.0937Y-3.7945
X3.0937Y-4.0945
X3.1102Y-2.6063
X3.1102Y-2.9063
X3.1937Y-3.7945
X3.1937Y-4.0945
X3.2362Y-4.378
X3.2362Y-4.678
X3.2382Y-2.2047
X3.2382Y-2.5047
X3.2382Y-2.6035
X3.2382Y-2.9035
X3.2906Y-3.0079
X3.3386Y-3.8024
X3.3386Y-4.1024
X3.3661Y-2.2098
X3.3661Y-2.5098
X3.3661Y-2.6035
X3.3661Y-2.9035
X3.3701Y-4.3772
X3.3701Y-4.6772
X3.4567Y-3.8031
X3.4567Y-4.1031
X3.5335Y-2.1358
X3.5335Y-2.3327
X3.5335Y-2.4213
X3.5335Y-2.6181
X3.5335Y-2.7067
X3.5335Y-2.9035
X3.5748Y-3.8024
X3.5748Y-4.1024
X3.5906Y-3.0079
X3.6811Y-2.9724
X3.685Y-3.8024
X3.685Y-4.1024
X3.6961Y-2.0177
X3.7008Y-2.1559
X3.7008Y-2.2559
X3.7008Y-2.3559
X3.7008Y-2.4559
X3.7008Y-2.5559
X3.7008Y-2.6559
X3.7008Y-2.7559
X3.8012Y-3.8004
X3.8012Y-4.1004
X3.8484Y-2.1457
X3.8484Y-2.3425
X3.8484Y-2.4311
X3.8484Y-2.628
X3.878Y-2.9724
X3.9055Y-3.8024
X3.9055Y-4.1024
X3.9731Y-2.97
X3.9961Y-2.0177
X4.0008Y-2.1559
X4.0008Y-2.2559
X4.0008Y-2.3559
X4.0008Y-2.4559
X4.0008Y-2.5559
X4.0008Y-2.6559
X4.0008Y-2.7559
X4.1247Y-2.3415
X4.1247Y-2.6415
X4.126Y-1.9539
X4.126Y-2.2539
X4.17Y-2.97
X4.252Y-1.9539
X4.252Y-2.2539
X4.2586Y-2.3423
X4.2586Y-2.6423
X4.34Y-2.8431
X4.34Y-3.04
X4.3799Y-1.9539
X4.3799Y-2.2539
T4
X0.6102Y-2.2378
X0.6102Y-2.3378
X0.6102Y-2.4378
X0.6102Y-2.5378
X0.6102Y-2.6378
X0.6102Y-2.8413
X0.6102Y-2.9413
X0.6102Y-3.0413
X0.6893Y-3.2465
X0.6893Y-3.3449
X0.6893Y-3.4433
X0.6893Y-4.4276
X0.6893Y-4.526
X0.6893Y-4.6244
X0.7102Y-2.2378
X0.7102Y-2.3378
X0.7102Y-2.4378
X0.7102Y-2.5378
X0.7102Y-2.6378
X0.9353Y-1.4748
X0.9353Y-1.5732
X0.9353Y-1.6717
X1.6437Y-4.8803
X1.6437Y-4.9803
X1.6735Y-3.2465
X1.6735Y-3.3449
X1.6735Y-3.4433
X1.6735Y-4.4276
X1.6735Y-4.526
X1.6735Y-4.6244
X1.8012Y-4.8803
X1.8012Y-4.9803
X1.9587Y-4.8803
X1.9587Y-4.9803
X2.1161Y-4.8803
X2.1161Y-4.9803
X2.2736Y-4.8803
X2.2736Y-4.9803
X2.6024Y-5.0
X2.6578Y-3.2465
X2.6578Y-3.3449
X2.6578Y-3.4433
X2.6578Y-4.4276
X2.6578Y-4.526
X2.6578Y-4.6244
X2.7024Y-5.0
X2.8024Y-5.0
X2.9024Y-5.0
X3.0024Y-5.0
X3.1024Y-5.0
X3.3959Y-1.4748
X3.3959Y-1.5732
X3.3959Y-1.6717
X3.642Y-3.2465
X3.642Y-3.3449
X3.642Y-3.4433
X4.1831Y-4.8902
X4.1831Y-4.9902
X4.3602Y-4.8902
X4.3602Y-4.9902
T5
X1.1992Y-2.2638
X1.1992Y-2.5984
X1.2992Y-2.2638
X1.2992Y-2.5984
X1.3992Y-2.2638
X1.3992Y-2.5984
T6
X0.9845Y-3.1559
X0.9845Y-3.5339
X0.9845Y-4.337
X0.9845Y-4.715
X1.2306Y-1.3843
X1.2306Y-1.7622
X1.9688Y-3.1559
X1.9688Y-3.5339
X1.9688Y-4.337
X1.9688Y-4.715
X2.953Y-3.1559
X2.953Y-3.5339
X2.953Y-4.337
X2.953Y-4.715
X3.6912Y-1.3843
X3.6912Y-1.7622
X3.9373Y-3.1559
X3.9373Y-3.5339
T0
M30
